<svg width="31" height="40" viewBox="0 0 31 40" fill="none" xmlns="http://www.w3.org/2000/svg">
<path d="M0 0H31V40L15.5 33.5849L0 40V0Z" fill="#FC4762"/>
<path d="M11.1824 27.8613C10.7566 27.8613 10.364 27.752 10.0046 27.5332C9.64916 27.3145 9.36205 27.0234 9.1433 26.6602C8.92846 26.293 8.82104 25.8906 8.82104 25.4531L8.83276 21.6504C8.83276 21.2051 8.94018 20.8047 9.15502 20.4492C9.36596 20.0898 9.65112 19.8027 10.0105 19.5879C10.3699 19.3691 10.7605 19.2598 11.1824 19.2598C11.6199 19.2598 12.0124 19.3672 12.3601 19.582C12.7117 19.7969 12.9929 20.0859 13.2039 20.4492C13.4187 20.8086 13.5261 21.209 13.5261 21.6504L13.5378 25.4531C13.5378 25.8906 13.4324 26.291 13.2214 26.6543C13.0066 27.0215 12.7214 27.3145 12.366 27.5332C12.0105 27.752 11.616 27.8613 11.1824 27.8613ZM11.1824 26.4141C11.4246 26.4141 11.6355 26.3164 11.8152 26.1211C11.9949 25.9219 12.0847 25.6992 12.0847 25.4531L12.073 21.6504C12.073 21.3848 11.989 21.1602 11.821 20.9766C11.6531 20.793 11.4402 20.7012 11.1824 20.7012C10.9363 20.7012 10.7253 20.791 10.5496 20.9707C10.3738 21.1504 10.2859 21.377 10.2859 21.6504V25.4531C10.2859 25.7148 10.3738 25.9414 10.5496 26.1328C10.7253 26.3203 10.9363 26.4141 11.1824 26.4141ZM15.8523 27.7441H14.5046C14.4656 27.7441 14.446 27.7246 14.446 27.6855L14.4695 19.4414C14.4695 19.4102 14.4851 19.3945 14.5164 19.3945H18.3601C18.3992 19.3945 18.4187 19.4102 18.4187 19.4414V20.7949C18.4187 20.8262 18.4031 20.8418 18.3718 20.8418H15.9109V22.7051H18.3718C18.4031 22.7051 18.4187 22.7246 18.4187 22.7637L18.4304 24.123C18.4304 24.1543 18.4109 24.1699 18.3718 24.1699H15.9109V27.6855C15.9109 27.7246 15.8914 27.7441 15.8523 27.7441ZM20.9031 27.7441H19.5554C19.5164 27.7441 19.4968 27.7246 19.4968 27.6855L19.5203 19.4414C19.5203 19.4102 19.5359 19.3945 19.5671 19.3945H23.4109C23.4499 19.3945 23.4695 19.4102 23.4695 19.4414V20.7949C23.4695 20.8262 23.4539 20.8418 23.4226 20.8418H20.9617V22.7051H23.4226C23.4539 22.7051 23.4695 22.7246 23.4695 22.7637L23.4812 24.123C23.4812 24.1543 23.4617 24.1699 23.4226 24.1699H20.9617V27.6855C20.9617 27.7246 20.9421 27.7441 20.9031 27.7441Z" fill="white"/>
<path d="M8.66029 15.7162C8.24232 15.7162 7.85365 15.6049 7.49428 15.3822C7.13881 15.1635 6.85365 14.8705 6.63881 14.5033C6.42787 14.1322 6.3224 13.7279 6.3224 13.2904V12.7513C6.3224 12.7084 6.33803 12.6869 6.36928 12.6869H7.71693C7.756 12.6869 7.77553 12.7084 7.77553 12.7513V13.2904C7.77553 13.5521 7.85951 13.7787 8.02748 13.9701C8.19545 14.1576 8.40639 14.2513 8.66029 14.2513C8.94154 14.2513 9.16225 14.1537 9.3224 13.9584C9.48256 13.7592 9.56264 13.5365 9.56264 13.2904V12.9681C9.56264 12.7181 9.48451 12.4935 9.32826 12.2943C9.17201 12.0951 8.97475 11.9955 8.73646 11.9955H8.26771C8.22865 11.9955 8.20912 11.974 8.20912 11.931L8.22084 10.5892C8.22084 10.558 8.23646 10.5424 8.26771 10.5424H8.73646C8.95131 10.5424 9.14271 10.4584 9.31068 10.2904C9.47865 10.1224 9.56264 9.90173 9.56264 9.6283V9.46423C9.56264 9.20642 9.4767 8.98767 9.30482 8.80798C9.13295 8.6283 8.91811 8.53845 8.66029 8.53845C8.4142 8.53845 8.20521 8.6283 8.03334 8.80798C7.86146 8.98767 7.77553 9.20642 7.77553 9.46423V10.0385C7.77553 10.0775 7.7599 10.097 7.72865 10.097H6.381C6.34975 10.097 6.33412 10.0775 6.33412 10.0385V9.39978C6.33412 8.96228 6.44545 8.57166 6.66811 8.22791C6.88686 7.88416 7.17396 7.61072 7.52943 7.40759C7.8849 7.20056 8.26186 7.09705 8.66029 7.09705C9.09389 7.09705 9.48842 7.20251 9.84389 7.41345C10.1994 7.6283 10.4806 7.9115 10.6876 8.26306C10.8986 8.61462 11.004 9.00134 11.004 9.42322V9.61658C11.004 9.96814 10.9454 10.2728 10.8283 10.5306C10.7111 10.7845 10.549 11.0287 10.3419 11.2631C10.549 11.5013 10.713 11.7631 10.8341 12.0482C10.9552 12.3334 11.0158 12.6263 11.0158 12.9271V13.2904C11.0158 13.7357 10.9103 14.1439 10.6994 14.515C10.4845 14.8822 10.1994 15.1752 9.84389 15.3939C9.48842 15.6088 9.09389 15.7162 8.66029 15.7162ZM14.3439 15.6986C13.8361 15.6986 13.3849 15.5892 12.9904 15.3705C12.5997 15.1517 12.2931 14.8607 12.0704 14.4974C11.8517 14.1302 11.7423 13.7279 11.7423 13.2904L11.754 9.48767C11.754 9.04236 11.8654 8.64197 12.088 8.2865C12.3068 7.92712 12.6115 7.64001 13.0021 7.42517C13.3927 7.20642 13.84 7.09705 14.3439 7.09705C14.8595 7.09705 15.3087 7.20447 15.6915 7.41931C16.0744 7.63416 16.3751 7.92322 16.5939 8.2865C16.8165 8.64587 16.9279 9.04626 16.9279 9.48767L16.9396 13.2904C16.9396 13.724 16.8302 14.1244 16.6115 14.4916C16.3888 14.8588 16.0822 15.1517 15.6915 15.3705C15.3048 15.5892 14.8556 15.6986 14.3439 15.6986ZM15.4865 13.2904L15.4747 9.48767C15.4747 9.20642 15.3693 8.97791 15.1583 8.80212C14.9513 8.62634 14.6798 8.53845 14.3439 8.53845C14.0001 8.53845 13.7247 8.62634 13.5177 8.80212C13.3107 8.97791 13.2072 9.20642 13.2072 9.48767V13.2904C13.2072 13.5873 13.3107 13.8217 13.5177 13.9935C13.7247 14.1654 14.0001 14.2513 14.3439 14.2513C14.6798 14.2513 14.9533 14.1654 15.1642 13.9935C15.379 13.8217 15.4865 13.5873 15.4865 13.2904ZM19.1076 11.1049C18.8263 11.1049 18.5704 11.0326 18.34 10.8881C18.1017 10.7435 17.9122 10.5521 17.7716 10.3138C17.631 10.0717 17.5607 9.81189 17.5607 9.53455V8.67908C17.5607 8.39001 17.631 8.12634 17.7716 7.88806C17.9122 7.64587 18.0997 7.45642 18.3341 7.3197C18.5724 7.17908 18.8302 7.10876 19.1076 7.10876C19.3966 7.10876 19.6583 7.17908 19.8927 7.3197C20.1232 7.46033 20.3048 7.65173 20.4376 7.89392C20.5744 8.1322 20.6427 8.39392 20.6427 8.67908V9.53455C20.6427 9.8197 20.5744 10.0814 20.4376 10.3197C20.297 10.5541 20.1095 10.7435 19.8751 10.8881C19.6447 11.0326 19.3888 11.1049 19.1076 11.1049ZM19.6466 15.5814H18.2462C18.2072 15.5814 18.1954 15.5619 18.2111 15.5228L22.9982 7.27869C23.0216 7.24744 23.0451 7.23181 23.0685 7.23181H24.463C24.506 7.23181 24.5177 7.24744 24.4982 7.27869L19.7228 15.5228C19.7072 15.5619 19.6818 15.5814 19.6466 15.5814ZM19.0841 10.1322C19.2443 10.1322 19.3751 10.0756 19.4767 9.96228C19.5822 9.84509 19.6349 9.70251 19.6349 9.53455V8.70251C19.6349 8.54626 19.5822 8.40955 19.4767 8.29236C19.3751 8.17517 19.2443 8.11658 19.0841 8.11658C18.924 8.11658 18.7892 8.17517 18.6798 8.29236C18.5744 8.40955 18.5216 8.54626 18.5216 8.70251V9.53455C18.5216 9.6947 18.5763 9.83533 18.6857 9.95642C18.799 10.0736 18.9318 10.1322 19.0841 10.1322ZM23.7306 15.6986C23.4454 15.6986 23.1876 15.6263 22.9572 15.4818C22.7189 15.3412 22.5294 15.1517 22.3888 14.9135C22.2482 14.6713 22.1779 14.4095 22.1779 14.1283V13.2787C22.1779 12.9857 22.2482 12.7201 22.3888 12.4818C22.5294 12.2396 22.7169 12.0502 22.9513 11.9135C23.1896 11.7728 23.4494 11.7025 23.7306 11.7025C24.0158 11.7025 24.2755 11.7728 24.5099 11.9135C24.7404 12.0541 24.924 12.2455 25.0607 12.4877C25.1974 12.726 25.2658 12.9896 25.2658 13.2787V14.1283C25.2658 14.4174 25.1954 14.6791 25.0548 14.9135C24.9142 15.1517 24.7267 15.3431 24.4923 15.4877C24.2619 15.6283 24.0079 15.6986 23.7306 15.6986ZM23.7189 14.7318C23.879 14.7318 24.0099 14.6732 24.1115 14.556C24.2169 14.4388 24.2697 14.2963 24.2697 14.1283V13.3021C24.2697 13.142 24.2169 13.0052 24.1115 12.892C24.0099 12.7748 23.879 12.7162 23.7189 12.7162C23.5587 12.7162 23.424 12.7748 23.3146 12.892C23.2052 13.0052 23.1505 13.142 23.1505 13.3021V14.1283C23.1505 14.2885 23.2072 14.4291 23.3204 14.5502C23.4337 14.6713 23.5665 14.7318 23.7189 14.7318Z" fill="white"/>
</svg>
