<svg width="50" height="50" viewBox="0 0 50 50" fill="none" xmlns="http://www.w3.org/2000/svg">
<path fill-rule="evenodd" clip-rule="evenodd" d="M27.6517 0.0142998C27.3811 0.0384508 26.86 0.153504 26.5352 0.260736C25.9951 0.439077 25.6259 0.607776 24.2783 1.29198C22.9664 1.95796 22.5881 2.1318 22.0411 2.31996C20.8866 2.71709 20.1204 2.71796 17.7851 2.32471C17.3008 2.24315 16.7442 2.15553 16.5484 2.12998C14.2385 1.82876 13.0123 2.23846 11.9494 3.66662C11.5746 4.17018 11.2005 4.83608 10.449 6.33688C9.30228 8.62696 8.62598 9.30324 6.33586 10.4499C4.83504 11.2014 4.16913 11.5756 3.66556 11.9503C2.23737 13.0132 1.82766 14.2393 2.12888 16.5492C2.15444 16.745 2.24206 17.3016 2.32362 17.7859C2.71688 20.1212 2.71601 20.8874 2.31887 22.0419C2.13071 22.5888 1.95687 22.9672 1.29087 24.279C0.607075 25.6258 0.437955 25.9958 0.260058 26.5345C-0.293544 28.2109 0.0152303 29.4222 1.39347 30.9809C1.51689 31.1205 2.10207 31.725 2.69386 32.3243C3.28567 32.9236 3.87224 33.5416 3.99735 33.6976C4.8763 34.7933 5.14984 35.5506 5.48537 37.8172C5.77581 39.7793 5.92135 40.3811 6.29204 41.1538C6.51549 41.6195 6.71867 41.9144 7.03789 42.2364C7.70509 42.9095 8.70142 43.3262 10.277 43.5913C10.5233 43.6327 11.0539 43.7149 11.4562 43.7739C13.5222 44.0771 14.3264 44.3427 15.2413 45.0235C15.7204 45.38 15.9285 45.571 17.0985 46.7283C17.7142 47.3373 18.3725 47.9615 18.5613 48.1155C19.3646 48.7703 20.0435 49.1095 20.7831 49.2254C21.1055 49.2759 21.7646 49.2392 22.152 49.1493C22.8974 48.9762 23.3707 48.776 25.0545 47.9217C25.7441 47.5718 26.4494 47.2258 26.6218 47.1527C27.6181 46.7306 28.3777 46.5937 29.3799 46.6557C29.9322 46.6899 30.2458 46.7317 31.4879 46.9367C33.0099 47.1878 33.1461 47.2027 33.9359 47.2039C34.494 47.2047 34.6916 47.194 34.9023 47.1515C35.7244 46.986 36.3052 46.6743 36.8555 46.1035C37.4017 45.5369 37.7276 45.0169 38.5489 43.4016C39.1852 42.1501 39.3909 41.7808 39.7304 41.2802C40.177 40.6219 40.6215 40.1774 41.2798 39.7309C41.7804 39.3913 42.1498 39.1856 43.4012 38.5493C45.0166 37.7281 45.5366 37.4022 46.1032 36.856C46.6795 36.3004 46.9999 35.6979 47.1537 34.8808C47.1933 34.6708 47.2048 34.4501 47.2036 33.9214C47.202 33.1482 47.1855 32.9982 46.9365 31.4884C46.7258 30.2115 46.6878 29.9273 46.6552 29.3823C46.5946 28.3715 46.7302 27.6189 47.1525 26.6224C47.2255 26.45 47.5715 25.7447 47.9214 25.0551C48.7757 23.3714 48.9759 22.8981 49.149 22.1527C49.239 21.7653 49.2757 21.1062 49.2251 20.7839C49.1092 20.0443 48.7701 19.3654 48.1152 18.5621C47.9613 18.3733 47.337 17.715 46.728 17.0993C45.5707 15.9293 45.3797 15.7213 45.0232 15.2422C44.3318 14.3132 44.0798 13.5382 43.7581 11.3526C43.605 10.3122 43.5384 9.93111 43.4266 9.45698C43.1676 8.35843 42.7867 7.58479 42.2361 7.0389C41.914 6.71968 41.6191 6.5165 41.1534 6.29305C40.3807 5.92237 39.7789 5.77684 37.8168 5.4864C35.5477 5.15052 34.804 4.88179 33.697 3.99763C33.541 3.87306 32.9231 3.28704 32.3238 2.69539C30.9508 1.33998 30.6834 1.09969 30.1295 0.723664C29.3146 0.170371 28.5037 -0.0617655 27.6517 0.0142998ZM25.7079 6.74783C25.6644 6.83405 25.3883 7.37158 25.0943 7.94237L24.5597 8.98018L24.5802 9.48487L24.6006 9.98953L24.1857 9.99962C23.9575 10.0052 23.7682 10.0093 23.765 10.0087C23.7618 10.0081 23.7497 9.78307 23.7381 9.50866L23.717 9.00967L23.0193 7.88248L22.3215 6.7553L22.4582 6.73195C22.5333 6.71912 22.7442 6.7124 22.9267 6.71703L23.2587 6.72544L23.675 7.40603C23.904 7.78035 24.0977 8.08017 24.1056 8.07229C24.1135 8.06438 24.2844 7.73797 24.4853 7.34689L24.8506 6.63588L25.2063 6.6195C25.4019 6.61048 25.6126 6.60042 25.6744 6.59711L25.7869 6.59111L25.7079 6.74783ZM21.1893 7.34841C21.2611 7.59151 21.276 7.67841 21.249 7.69516C21.2291 7.70742 20.8766 7.81666 20.4657 7.93792C20.0547 8.05918 19.7125 8.17373 19.7052 8.19245C19.6818 8.25233 19.8447 8.73864 19.8837 8.72532C20.2238 8.60934 21.235 8.32771 21.2509 8.34458C21.2793 8.37479 21.4603 8.98606 21.4453 9.0011C21.4388 9.00755 21.1293 9.10439 20.7574 9.21631C20.3855 9.32823 20.0758 9.42528 20.0691 9.43197C20.0596 9.44143 20.1962 9.93174 20.2148 9.95499C20.2172 9.95798 20.5735 9.85388 21.0067 9.72363C21.4398 9.59341 21.8031 9.48684 21.814 9.48684C21.8369 9.48684 22.0395 10.1689 22.0214 10.185C22.0027 10.2015 19.6809 10.8899 19.6438 10.8899C19.6257 10.8899 19.597 10.8463 19.5802 10.7929C19.4432 10.3596 18.6807 7.7754 18.6807 7.74444C18.6807 7.70151 21.038 6.97451 21.0738 7.00639C21.0846 7.01606 21.1366 7.16995 21.1893 7.34841ZM30.0872 7.50308C30.5171 7.65987 30.9375 7.82284 31.0216 7.86523C31.4829 8.09784 31.7009 8.46829 31.6115 8.86778C31.5412 9.18153 31.2852 9.46603 31.0374 9.50565L30.9255 9.52356L31.0271 9.62509C31.1729 9.77092 31.2264 9.89266 31.2416 10.1135C31.2657 10.4633 31.1014 10.7671 30.7969 10.9357C30.6464 11.0191 30.6179 11.0242 30.3087 11.0232L29.9803 11.0222L29.0548 10.6831C28.5458 10.4967 28.1253 10.3409 28.1204 10.3369C28.1139 10.3316 28.9758 7.9444 29.2223 7.28519C29.2361 7.24826 29.2605 7.21802 29.2766 7.21802C29.2926 7.21802 29.6574 7.34629 30.0872 7.50308ZM29.8041 8.16853C29.7956 8.1823 29.7424 8.32126 29.6859 8.47727L29.5832 8.76096L29.9829 8.90399C30.3019 9.01815 30.4073 9.0437 30.5052 9.03054C30.821 8.9882 30.9009 8.6211 30.6287 8.46261C30.5564 8.42052 29.8655 8.14638 29.8253 8.14382C29.8222 8.14361 29.8126 8.15474 29.8041 8.16853ZM17.7766 9.50959C18.1578 10.1292 18.5499 10.7663 18.648 10.9254L18.8263 11.2146L18.5591 11.3806C18.4122 11.472 18.2778 11.5467 18.2605 11.5467C18.2432 11.5467 17.731 11.3919 17.1222 11.2027C16.5134 11.0135 16.0113 10.8626 16.0063 10.8675C16.0015 10.8725 16.2064 11.2161 16.4618 11.6311C16.7171 12.0462 16.9212 12.3895 16.9153 12.3939C16.9093 12.3984 16.748 12.4975 16.5567 12.6143L16.2089 12.8266L15.3361 11.4096C14.856 10.6302 14.4684 9.98753 14.4748 9.98141C14.524 9.93389 14.9867 9.66596 15.0196 9.66596C15.0425 9.66596 15.5625 9.82689 16.175 10.0236C16.7876 10.2203 17.2936 10.3764 17.2996 10.3704C17.3055 10.3645 17.1016 10.0208 16.8462 9.60673C16.5909 9.19267 16.382 8.84279 16.382 8.82921C16.382 8.80709 17.0321 8.38521 17.0687 8.38362C17.0769 8.38326 17.3955 8.88996 17.7766 9.50959ZM29.3437 9.42107C29.2674 9.5749 29.1552 9.94228 29.1779 9.96383C29.1923 9.97753 29.3989 10.0584 29.637 10.1435C30.1409 10.3237 30.2535 10.3284 30.3908 10.1748C30.5624 9.98276 30.446 9.76814 30.0997 9.63807C29.4107 9.37928 29.3702 9.36764 29.3437 9.42107ZM34.6378 9.79283C34.8358 9.93018 34.9463 10.0256 34.9402 10.054C34.7021 11.1629 34.1546 13.5468 34.1381 13.5468C34.1192 13.5468 33.5275 13.1362 33.4491 13.0687C33.4358 13.0573 33.4587 12.9155 33.4998 12.7536C33.5409 12.5916 33.5719 12.4569 33.5686 12.4542C33.4979 12.3958 32.4868 11.6879 32.4585 11.6771C32.4364 11.6686 32.3072 11.7361 32.1712 11.8272L31.924 11.9927L31.8328 11.9248C31.7826 11.8874 31.623 11.772 31.4781 11.6683C31.3278 11.5606 31.2258 11.4684 31.2407 11.4535C31.2949 11.3994 34.251 9.57977 34.2876 9.57813C34.3086 9.57717 34.4662 9.67381 34.6378 9.79283ZM33.5488 10.921L33.0882 11.2241L33.1612 11.2802C33.4022 11.4651 33.755 11.6931 33.7679 11.6722C33.7952 11.6281 34.0282 10.6743 34.0187 10.6458C34.0136 10.6305 33.8021 10.7544 33.5488 10.921ZM13.7683 11.8309C14.6161 12.1257 15.1092 13.0199 14.8938 13.8717C14.8069 14.2153 14.6563 14.4727 14.3847 14.7415C14.0211 15.1013 13.6341 15.2595 13.1268 15.2555C12.393 15.2498 11.747 14.7617 11.4975 14.0245C11.4134 13.7761 11.4196 13.2682 11.5099 13.0057C11.7311 12.3632 12.2903 11.871 12.9294 11.7566C13.1609 11.7152 13.5293 11.7478 13.7683 11.8309ZM37.2752 12.4132C37.8312 12.6082 38.311 13.1341 38.458 13.7098C38.5765 14.1739 38.4443 14.7242 38.1246 15.0977L38.0213 15.2184L37.7555 14.8931L37.4896 14.5678L37.5842 14.3845C37.8036 13.9591 37.6328 13.4743 37.1847 13.2504C37.031 13.1736 36.9664 13.1587 36.7869 13.1587C36.6081 13.1587 36.5425 13.1737 36.3922 13.2488C36.1801 13.3548 35.9573 13.5807 35.8698 13.7785C35.7862 13.9675 35.786 14.26 35.8693 14.4484C35.9461 14.622 36.1508 14.8469 36.3024 14.9242C36.4702 15.0098 36.672 15.0256 36.8686 14.9684C36.96 14.9418 37.041 14.9201 37.0485 14.9201C37.0629 14.9201 37.521 15.4759 37.5595 15.5401C37.5914 15.5933 37.2574 15.7449 36.9781 15.804C36.4705 15.9115 35.9482 15.7376 35.5418 15.3257C35.2173 14.9969 35.027 14.596 34.9926 14.1688C34.9283 13.3698 35.5003 12.5964 36.3241 12.3685C36.5583 12.3038 37.0256 12.3257 37.2752 12.4132ZM12.9041 12.6016C12.7088 12.6664 12.6075 12.7298 12.488 12.8621C12.1612 13.2238 12.1683 13.7293 12.5054 14.0981C12.714 14.3264 12.9254 14.4235 13.2176 14.4253C13.4771 14.4268 13.6475 14.363 13.8342 14.1944C14.0108 14.0349 14.0948 13.844 14.1081 13.5722C14.1178 13.3735 14.1086 13.3203 14.0377 13.1622C13.9414 12.9477 13.731 12.737 13.5248 12.6486C13.3446 12.5714 13.0601 12.5498 12.9041 12.6016ZM11.2953 15.8633C12.098 16.2179 12.7716 16.5149 12.7921 16.5233C12.8127 16.5316 12.8295 16.5539 12.8295 16.5726C12.8296 16.6228 12.5225 17.3083 12.5 17.3083C12.4895 17.3083 12.1608 17.1671 11.7698 16.9946C11.3787 16.822 11.0535 16.686 11.0472 16.6923C11.0409 16.6986 11.1862 16.9305 11.3701 17.2075C11.5539 17.4846 11.71 17.7328 11.7169 17.7591C11.7239 17.7854 11.6898 17.8946 11.6412 18.0017L11.5528 18.1965L11.3627 18.2283C11.2582 18.2457 10.9778 18.2901 10.7397 18.3269C10.5016 18.3637 10.2972 18.4016 10.2854 18.4112C10.2737 18.4209 10.5877 18.5695 10.9832 18.7414C11.3788 18.9133 11.7077 19.068 11.7143 19.085C11.735 19.139 11.4062 19.8316 11.3647 19.8216C11.3079 19.808 8.40008 18.527 8.37384 18.5041C8.34506 18.4789 8.5735 17.9615 8.62553 17.934C8.64721 17.9225 9.11495 17.8358 9.665 17.7413C10.215 17.6468 10.6692 17.566 10.6742 17.5616C10.6792 17.5573 10.4277 17.1546 10.1154 16.6666C9.54962 15.7828 9.54761 15.779 9.5878 15.6856C9.73793 15.3362 9.79489 15.2186 9.81394 15.2186C9.82591 15.2186 10.4925 15.5087 11.2953 15.8633ZM40.1006 16.2069C40.1827 16.4056 40.2537 16.5783 40.2585 16.5908C40.2632 16.6034 39.9643 16.7388 39.5942 16.8919C39.2242 17.0449 38.9215 17.1777 38.9217 17.187C38.9219 17.1962 39.3378 17.3443 39.8461 17.5161L40.7701 17.8284L40.9503 18.2634C41.0495 18.5026 41.1305 18.707 41.1305 18.7175C41.1305 18.728 40.7309 18.6032 40.2424 18.4401C39.7539 18.2771 39.3401 18.1491 39.3228 18.1556C39.3055 18.1622 39.0303 18.599 38.7111 19.1261C38.3919 19.6533 38.1235 20.0846 38.1147 20.0846C38.102 20.0846 37.8247 19.4382 37.742 19.2159C37.7309 19.1861 37.8669 18.9237 38.1028 18.5197C38.3137 18.1586 38.4697 17.8605 38.4551 17.8469C38.4406 17.8335 38.2928 17.7784 38.1266 17.7245L37.8245 17.6265L37.5182 17.7503C37.3497 17.8185 37.2031 17.8687 37.1923 17.8621C37.158 17.8409 36.8799 17.1306 36.8987 17.1119C36.9159 17.0947 39.9055 15.8499 39.9364 15.8471C39.9446 15.8463 40.0185 16.0083 40.1006 16.2069ZM28.7587 16.9634C30.2192 17.2466 31.2255 18.3151 31.5503 19.9274C31.6327 20.3364 31.6618 21.2309 31.6078 21.6946C31.4282 23.2386 30.5766 24.4192 29.3161 24.8717C28.3047 25.2347 27.0523 25.1353 26.1736 24.6221C25.1217 24.0077 24.5026 22.8939 24.3827 21.3997C24.3452 20.9327 24.3804 20.3552 24.4737 19.9055C24.8227 18.2245 25.9522 17.1183 27.5203 16.9216C27.8185 16.8843 28.4628 16.906 28.7587 16.9634ZM21.3825 17.0446C21.93 17.1525 22.331 17.3535 22.7027 17.7066C22.9615 17.9525 23.1558 18.2518 23.2613 18.5673C23.5354 19.3873 23.3753 20.2304 22.8444 20.7632L22.6293 20.979L22.7729 21.0712C23.1166 21.2918 23.4495 21.7564 23.5417 22.1445C23.6702 22.6849 23.5649 23.3532 23.2759 23.8309C22.7282 24.7361 21.4874 25.2243 20.1294 25.0687C18.9574 24.9345 18.171 24.3412 17.8279 23.3325C17.7336 23.0555 17.6542 22.6516 17.6874 22.6183C17.7027 22.6031 18.1024 22.5948 18.6049 22.5993L19.4955 22.6072L19.5348 22.7415C19.6004 22.9653 19.7568 23.1949 19.9161 23.3015C20.1442 23.4541 20.3327 23.4958 20.7364 23.4827C21.0334 23.4732 21.1082 23.4602 21.2507 23.394C21.4336 23.309 21.6076 23.1522 21.685 23.0025C21.7617 22.8543 21.7746 22.5312 21.7107 22.3637C21.602 22.0792 21.3018 21.8566 20.9353 21.7889C20.8386 21.771 20.5739 21.7564 20.347 21.7564H19.9346V21.0275V20.2985L20.4496 20.2886C20.9435 20.2791 20.9715 20.2752 21.1351 20.1949C21.3447 20.092 21.5266 19.8916 21.5936 19.6902C21.711 19.3366 21.581 18.9137 21.2951 18.7193C21.0998 18.5864 20.9536 18.5536 20.6212 18.5682C20.2849 18.583 20.1087 18.6578 19.915 18.8679C19.798 18.9948 19.6659 19.2767 19.6659 19.3996C19.6659 19.4572 19.6451 19.4584 18.7485 19.4507L17.8311 19.4428L17.8394 19.3084C17.8549 19.0566 17.9684 18.6671 18.1143 18.3646C18.3667 17.8414 18.8456 17.4034 19.3988 17.1901C20.0131 16.9532 20.6729 16.9048 21.3825 17.0446ZM27.5875 18.6642C27.1521 18.7698 26.7615 19.099 26.5396 19.5473C26.2152 20.2028 26.1435 21.1312 26.354 21.954C26.5349 22.6615 26.9864 23.1725 27.5634 23.3227C27.7818 23.3796 28.2275 23.3813 28.4352 23.326C29.0966 23.15 29.5587 22.5517 29.7126 21.6721C29.771 21.3382 29.7714 20.6543 29.7134 20.3234C29.5572 19.4327 29.0972 18.8422 28.4225 18.6665C28.2184 18.6133 27.802 18.6122 27.5875 18.6642ZM9.45035 22.016C9.49101 22.0257 9.51316 22.0484 9.50436 22.0713C9.49615 22.0927 9.46209 22.3295 9.42862 22.5975C9.18752 24.5298 9.30395 26.4256 9.77665 28.2643C9.85054 28.5517 9.91272 28.8183 9.91487 28.8569C9.91822 28.9172 9.89466 28.9345 9.7465 28.9807C9.58729 29.0303 9.57233 29.0307 9.54842 28.9852C9.50937 28.9109 9.28959 28.0308 9.204 27.6059C8.84916 25.8447 8.80438 24.0195 9.07124 22.1939L9.10549 21.9597L9.24344 21.9796C9.3193 21.9906 9.41241 22.0069 9.45035 22.016ZM40.3344 22.0079C40.3625 22.0811 40.471 23.0055 40.5028 23.4431C40.542 23.9823 40.542 25.0956 40.5027 25.6089C40.4608 26.1578 40.372 26.8501 40.2773 27.3687C40.1974 27.8058 39.9275 28.9217 39.8848 28.9914C39.8666 29.0212 39.823 29.0174 39.6784 28.9735L39.4951 28.9179L39.568 28.6583C39.9944 27.1384 40.196 25.3853 40.1185 23.8689C40.0865 23.2413 40.0322 22.6673 39.9642 22.2377C39.9476 22.133 39.9394 22.0419 39.946 22.0353C39.9594 22.0219 40.193 21.9737 40.2691 21.9686C40.296 21.9668 40.3255 21.9845 40.3344 22.0079ZM20.4405 26.7852C21.1816 26.9554 21.7215 27.3088 22.0807 27.859C22.3427 28.2605 22.4515 28.6576 22.4493 29.2047C22.4443 30.4069 21.6934 31.3144 20.4719 31.5941C20.2866 31.6366 20.0385 31.6478 19.0315 31.6593L17.815 31.6732V29.1897V26.7063L19.0166 26.7202C20.0072 26.7318 20.2572 26.7432 20.4405 26.7852ZM26.698 29.1694C27.2636 30.5128 27.7263 31.6247 27.7263 31.6403C27.7263 31.6577 27.4741 31.6656 27.0783 31.6607L26.4303 31.6526L26.2646 31.2347L26.0988 30.8167L25.0673 30.8089L24.0359 30.8011L23.8731 31.2268L23.7104 31.6526L23.0614 31.6607C22.5686 31.6668 22.4124 31.66 22.4124 31.6325C22.4124 31.6127 22.864 30.5276 23.416 29.2213C23.968 27.9151 24.4312 26.8158 24.4454 26.7785C24.4713 26.7108 24.4716 26.7107 25.0705 26.7188L25.6697 26.7269L26.698 29.1694ZM28.8506 27.7867C29.1684 28.3531 29.4383 28.8194 29.4506 28.8229C29.4628 28.8263 29.7347 28.36 30.0549 27.7866L30.637 26.744L31.3162 26.7429C31.6898 26.7423 31.9954 26.7502 31.9954 26.7605C31.9954 26.7708 31.5655 27.5416 31.0401 28.4733L30.0848 30.1673V30.9174V31.6676H29.4578H28.8309V30.9159V30.1642L27.9005 28.5202C27.3888 27.616 26.9505 26.8457 26.9265 26.8084L26.8828 26.7407L27.5778 26.7487L28.2728 26.7567L28.8506 27.7867ZM19.0687 28.8539C19.0686 29.4081 19.0599 30.0126 19.0492 30.1973L19.0298 30.5331H19.5388C19.9603 30.5331 20.0803 30.5231 20.2374 30.4745C20.6128 30.3585 20.8912 30.1172 21.0641 29.758C21.1577 29.5634 21.1728 29.5006 21.1832 29.2623C21.2028 28.8158 21.0899 28.5251 20.785 28.2367C20.6022 28.0638 20.3283 27.9226 20.0871 27.8769C19.9987 27.8601 19.7335 27.8464 19.4977 27.8464H19.0688L19.0687 28.8539ZM24.788 28.8711C24.6414 29.2516 24.5035 29.6066 24.4816 29.6599L24.4417 29.757H25.0654H25.6892L25.3904 28.9883C25.2261 28.5655 25.0833 28.2105 25.073 28.1994C25.0628 28.1883 24.9345 28.4906 24.788 28.8711ZM37.9758 30.9587C38.145 31.0718 38.2338 31.1493 38.2239 31.1752C38.2153 31.1974 38.0187 31.4996 37.7869 31.8467C37.5552 32.1938 37.359 32.4948 37.3509 32.5158C37.3374 32.551 37.8044 32.8863 37.8283 32.8584C37.8338 32.852 38.015 32.5814 38.231 32.2571C38.4469 31.9329 38.6307 31.6676 38.6393 31.6676C38.6512 31.6676 39.1633 32.0012 39.2147 32.0424C39.22 32.0466 39.0512 32.31 38.8396 32.6276C38.6279 32.9451 38.4458 33.2201 38.4349 33.2385C38.4171 33.2685 38.4798 33.3176 38.8047 33.5286L38.882 33.5788L39.3391 32.8918C39.5905 32.514 39.8081 32.2049 39.8227 32.2049C39.842 32.2049 40.3291 32.5163 40.4085 32.5793C40.4251 32.5926 39.032 34.668 39.0106 34.6618C38.9842 34.6542 36.3185 32.8931 36.2816 32.8589C36.2439 32.824 37.6353 30.7375 37.6791 30.7632C37.6974 30.7739 37.8309 30.8619 37.9758 30.9587ZM11.483 30.997C12.0701 31.1354 12.6116 31.6595 12.808 32.2795C12.9021 32.5764 12.8999 33.0714 12.8035 33.3162C12.7362 33.487 12.4938 33.8468 12.446 33.8468C12.4187 33.8468 11.9637 33.1765 11.9637 33.1362C11.9637 33.1227 11.9922 33.0528 12.027 32.9807C12.0781 32.875 12.0876 32.812 12.0763 32.6542C12.0514 32.3084 11.8375 32.0083 11.5114 31.862C11.3516 31.7903 11.3007 31.7814 11.116 31.7935C10.8436 31.8112 10.6101 31.9229 10.4155 32.1287C10.2318 32.3229 10.1616 32.5202 10.1776 32.797C10.2059 33.2861 10.6417 33.724 11.0681 33.6919L11.191 33.6826L10.9505 33.31C10.8181 33.105 10.7099 32.9274 10.7099 32.9152C10.7099 32.903 10.8291 32.8129 10.9749 32.7149L11.2399 32.5367L11.7382 33.2843C12.0122 33.6954 12.2322 34.0358 12.227 34.0406C12.216 34.0509 10.742 35.0192 10.6905 35.0501C10.6691 35.0628 10.5923 34.9721 10.4869 34.8095L10.3177 34.5484L10.4317 34.4518C10.4944 34.3987 10.5558 34.355 10.5681 34.3548C10.5804 34.3545 10.5905 34.3424 10.5905 34.3278C10.5905 34.3132 10.5401 34.2918 10.4785 34.2802C10.0471 34.1993 9.63359 33.7777 9.43375 33.215C9.32652 32.913 9.32156 32.4354 9.42265 32.1452C9.60469 31.6225 10.0465 31.2063 10.6054 31.031C10.8913 30.9413 11.1967 30.9295 11.483 30.997ZM35.7193 34.4795L35.1151 35.0675L35.324 35.277L35.533 35.4866L36.058 34.9821L36.5831 34.4776L36.8342 34.731L37.0854 34.9844L36.5536 35.4951L36.0217 36.0058L36.2224 36.208L36.423 36.4101L37.0229 35.8304L37.6228 35.2507L37.8765 35.5063L38.1303 35.762L37.3839 36.4919C36.9734 36.8933 36.5637 37.2866 36.4734 37.3658L36.3092 37.5099L35.1748 36.332C34.5508 35.6842 34.0364 35.1437 34.0315 35.1308C34.0267 35.1179 34.4281 34.7165 34.9236 34.2388L35.8246 33.3702L36.074 33.6309L36.3235 33.8916L35.7193 34.4795ZM14.2301 34.0069C14.3957 34.1524 14.5311 34.2773 14.5311 34.2844C14.5311 34.2916 14.2438 34.6252 13.8926 35.0259C13.5415 35.4266 13.2224 35.819 13.1836 35.8977C13.0231 36.2237 13.1302 36.5951 13.4399 36.7865C13.5669 36.8651 13.614 36.8769 13.7997 36.8769C14.0964 36.8769 14.2171 36.7959 14.6464 36.3092C14.8345 36.096 15.1278 35.7637 15.2983 35.5707L15.6083 35.2198L15.92 35.4936C16.1867 35.7278 16.2265 35.7742 16.195 35.8146C16.1747 35.8406 15.8766 36.183 15.5325 36.5755C14.8758 37.3247 14.6525 37.5265 14.3559 37.6389C14.024 37.7647 13.6934 37.7652 13.3637 37.6406C12.9757 37.494 12.5794 37.1332 12.3938 36.7578C12.2912 36.5501 12.2784 36.4983 12.2674 36.246C12.2521 35.8968 12.3236 35.6475 12.5271 35.341C12.6708 35.1245 13.8742 33.7281 13.9092 33.7372C13.9202 33.74 14.0646 33.8614 14.2301 34.0069ZM33.754 35.8127C33.854 35.9745 33.9356 36.1189 33.9352 36.1337C33.9349 36.1484 33.7655 36.2602 33.559 36.382C33.3524 36.5039 33.1558 36.626 33.122 36.6533C33.0616 36.7022 33.0702 36.7185 33.7257 37.799C34.0914 38.4018 34.3857 38.8987 34.3797 38.9033C34.2602 38.9939 33.6925 39.3106 33.6721 39.298C33.6566 39.2884 33.3605 38.8137 33.0141 38.2429C32.6676 37.6722 32.3723 37.1871 32.3578 37.1648C32.3372 37.1334 32.2378 37.1813 31.9088 37.3815C31.6764 37.523 31.4713 37.6419 31.453 37.6459C31.4007 37.6572 31.0337 37.0321 31.0781 37.0072C31.0983 36.9959 31.6589 36.6564 32.3238 36.2528C32.9888 35.8491 33.5417 35.5188 33.5525 35.5187C33.5634 35.5186 33.654 35.6509 33.754 35.8127ZM18.0684 36.7643C18.3363 36.8977 18.4121 36.9487 18.4124 36.9957C18.4129 37.0909 18.1742 40.2956 18.1561 40.4362L18.1399 40.5624L17.7502 40.3671L17.3604 40.1718L17.3807 39.9125C17.3918 39.7699 17.4067 39.6326 17.4138 39.6075C17.4234 39.5737 17.2621 39.4771 16.7973 39.2381L16.1678 38.9145L16.0436 39.0306C15.9752 39.0944 15.8754 39.1862 15.8216 39.2345L15.7239 39.3223L15.3365 39.1305C15.1234 39.0249 14.9491 38.93 14.9491 38.9194C14.9491 38.9008 17.6916 36.5933 17.7137 36.5933C17.7198 36.5933 17.8794 36.6702 18.0684 36.7643ZM31.0305 38.8474C31.2975 39.7011 31.5113 40.413 31.5056 40.4294C31.4923 40.4681 30.9354 40.6355 30.8846 40.616C30.8632 40.6078 30.4044 40.3299 29.8649 39.9985C29.3255 39.6672 28.8805 39.4002 28.8761 39.4052C28.8718 39.4103 28.9862 39.7905 29.1305 40.2503C29.2747 40.71 29.3839 41.0949 29.3731 41.1057C29.3394 41.139 28.623 41.3509 28.6049 41.3328C28.5955 41.3234 28.3688 40.6125 28.1011 39.7531C27.7728 38.6994 27.6253 38.1845 27.6479 38.1722C27.6664 38.1621 27.8035 38.1171 27.9526 38.072L28.2236 37.9901L29.2009 38.6052C29.7385 38.9435 30.2029 39.2336 30.2331 39.2497C30.2963 39.2835 30.328 39.4038 29.967 38.2404C29.8481 37.8575 29.7595 37.5351 29.7702 37.524C29.7999 37.4929 30.4521 37.2844 30.5016 37.2902C30.532 37.2937 30.692 37.7647 31.0305 38.8474ZM17.1746 38.0314C16.7997 38.3642 16.7689 38.3993 16.8184 38.4355C16.9466 38.5292 17.4649 38.7761 17.4851 38.7531C17.5099 38.7247 17.6176 37.6995 17.5978 37.6797C17.5908 37.6727 17.4004 37.831 17.1746 38.0314ZM20.9574 37.9084C21.7898 38.0894 21.9667 38.1442 22.1963 38.2926C22.5952 38.5505 22.7937 38.9803 22.7137 39.4131C22.6403 39.8102 22.4215 40.11 22.0877 40.271C21.979 40.3233 21.8859 40.3688 21.881 40.372C21.876 40.3752 22.0009 40.6563 22.1584 40.9968C22.316 41.3373 22.4398 41.6211 22.4335 41.6273C22.4226 41.6382 21.4856 41.4387 21.4707 41.4224C21.4667 41.4181 21.3552 41.1727 21.2229 40.8772L20.9824 40.3398L20.7645 40.2888C20.6446 40.2607 20.5329 40.2373 20.5161 40.2366C20.4994 40.2359 20.4422 40.4391 20.3891 40.6882C20.336 40.9373 20.2869 41.1468 20.2799 41.1538C20.273 41.1607 20.0917 41.1284 19.8771 41.0821C19.578 41.0175 19.4868 40.9868 19.4868 40.9509C19.4868 40.9126 20.1025 38.0657 20.1624 37.8272C20.172 37.7889 20.1988 37.7575 20.2218 37.7575C20.2449 37.7575 20.5759 37.8254 20.9574 37.9084ZM25.6897 38.3621C25.7283 38.4093 27.2244 41.6133 27.2126 41.6236C27.2078 41.6278 27.0098 41.6362 26.7726 41.6423L26.3412 41.6534L26.2203 41.3761L26.0993 41.0988L25.6664 41.1156C25.4284 41.1248 25.1117 41.1398 24.9628 41.1489L24.692 41.1656L24.6119 41.4095C24.5678 41.5436 24.5197 41.672 24.5051 41.6949C24.4851 41.7261 24.3701 41.7401 24.0445 41.7512L23.6105 41.7659L23.9819 40.7842C24.1862 40.2443 24.4761 39.4771 24.6262 39.0795L24.8991 38.3565L25.2305 38.347C25.4128 38.3418 25.5838 38.3346 25.6106 38.3311C25.6373 38.3276 25.6729 38.3416 25.6897 38.3621ZM20.8294 38.6755C20.829 38.6878 20.7894 38.8726 20.7414 39.086C20.6934 39.2994 20.6636 39.4823 20.675 39.4924C20.7253 39.5366 21.3563 39.6441 21.4899 39.6312C21.8489 39.5968 22.0148 39.2417 21.7943 38.9797C21.6879 38.8532 21.5768 38.8034 21.222 38.7232C20.8884 38.6478 20.8306 38.6408 20.8294 38.6755ZM25.1374 39.8792L24.9523 40.4145L25.3168 40.4124C25.5173 40.4112 25.7033 40.4011 25.7302 40.39C25.7721 40.3726 25.7476 40.2977 25.5585 39.8646C25.4372 39.5868 25.3344 39.356 25.3301 39.3518C25.3259 39.3475 25.2392 39.5849 25.1374 39.8792Z" fill="#17449C"/>
</svg>
