<svg width="51" height="51" viewBox="0 0 51 51" fill="none" xmlns="http://www.w3.org/2000/svg">
<path fill-rule="evenodd" clip-rule="evenodd" d="M27.0007 1.15325C27.3312 1.04413 27.8615 0.927061 28.1368 0.902486C29.0038 0.825086 29.8289 1.06129 30.6581 1.6243C31.2217 2.00692 31.4938 2.25142 32.8909 3.63061C33.5007 4.23265 34.1295 4.82894 34.2882 4.9557C35.4146 5.85537 36.1713 6.12882 38.4803 6.47059C40.4768 6.76612 41.0892 6.91421 41.8754 7.29139C42.3493 7.51876 42.6494 7.72551 42.977 8.05032C43.5374 8.60579 43.925 9.393 44.1885 10.5108C44.3022 10.9933 44.37 11.381 44.5258 12.4397C44.8531 14.6637 45.1096 15.4522 45.8131 16.3975C46.1759 16.885 46.3702 17.0967 47.5478 18.2873C48.1675 18.9138 48.8027 19.5836 48.9593 19.7757C49.6257 20.5931 49.9708 21.2839 50.0887 22.0364C50.1401 22.3644 50.1028 23.0351 50.0113 23.4293C49.8352 24.1877 49.6315 24.6694 48.7621 26.3826C48.4061 27.0843 48.054 27.802 47.9797 27.9774C47.5501 28.9914 47.4121 29.7572 47.4737 30.7858C47.5069 31.3403 47.5455 31.6294 47.7599 32.9288C48.0133 34.4651 48.0301 34.6176 48.0318 35.4045C48.0329 35.9424 48.0212 36.167 47.981 36.3807C47.8245 37.2122 47.4984 37.8252 46.912 38.3905C46.3354 38.9463 45.8064 39.2779 44.1626 40.1136C42.8892 40.761 42.5134 40.9703 42.004 41.3158C41.3341 41.7702 40.8818 42.2225 40.4275 42.8923C40.0819 43.4017 39.8726 43.7775 39.2252 45.0509C38.3895 46.6946 38.0579 47.2237 37.5021 47.8003C36.9421 48.3811 36.3512 48.6982 35.5147 48.8667C35.3002 48.9099 35.0991 48.9208 34.5312 48.9199C33.7276 48.9188 33.589 48.9036 32.0403 48.648C30.7764 48.4395 30.4573 48.397 29.8953 48.3622C28.8756 48.2991 28.1026 48.4384 27.0888 48.8679C26.9134 48.9422 26.1957 49.2943 25.494 49.6504C23.7807 50.5196 23.2991 50.7234 22.5406 50.8995C22.1464 50.991 21.4757 51.0283 21.1477 50.9769C20.3952 50.859 19.7043 50.5139 18.887 49.8475C18.6948 49.6909 18.025 49.0557 17.3985 48.436C16.2079 47.2585 15.9962 47.0641 15.5087 46.7013C14.5778 46.0085 13.7594 45.7384 11.6572 45.4298C11.2479 45.3697 10.7079 45.2861 10.4573 45.2439C8.85408 44.9742 7.84027 44.5502 7.16137 43.8654C6.83654 43.5377 6.6298 43.2376 6.40242 42.7637C6.02523 41.9775 5.87714 41.3651 5.5816 39.3686C5.24019 37.0622 4.96185 36.2916 4.06748 35.1767C3.94017 35.018 3.34332 34.3892 2.74112 33.7793C2.13895 33.1695 1.5435 32.5544 1.41792 32.4124C0.0154975 30.8263 -0.298694 29.5938 0.264621 27.8879C0.445638 27.3398 0.617725 26.9633 1.31351 25.5928C1.9912 24.258 2.16809 23.8731 2.35955 23.3165C2.76366 22.1418 2.76454 21.3621 2.36438 18.9859C2.28139 18.4931 2.19223 17.9267 2.16623 17.7275C1.85973 15.3771 2.27662 14.1294 3.72987 13.0479C4.24227 12.6666 4.91986 12.2859 6.44702 11.5212C8.77731 10.3544 9.46548 9.66624 10.6323 7.33599C11.397 5.80886 11.7777 5.13128 12.1591 4.61889C13.2406 3.16567 14.4883 2.74878 16.8387 3.05528C17.038 3.08128 17.6043 3.17044 18.0972 3.25343C20.4734 3.65358 21.2531 3.6527 22.4278 3.2486C22.9844 3.05713 23.3694 2.88025 24.7042 2.20258C26.0755 1.50637 26.4511 1.33472 27.0007 1.15325Z" fill="#3171FB"/>
<g clip-path="url(#clip0_8051_1162)">
<path d="M9.75019 24.7907C9.75987 24.6473 9.75407 24.529 9.7289 24.436C9.68051 24.2616 9.57405 24.1666 9.40952 24.155C9.31273 24.1472 9.23531 24.1841 9.17724 24.2655C9.11917 24.3469 9.06497 24.4748 9.01077 24.6531L8.91786 24.9574C8.82688 25.2558 8.73591 25.4613 8.64687 25.5717C8.49782 25.7578 8.27909 25.8411 7.99261 25.8198C7.7313 25.8004 7.52225 25.6899 7.36352 25.4865C7.2048 25.283 7.13898 24.9981 7.16608 24.6298C7.18931 24.3217 7.28997 24.0658 7.46805 23.8604C7.64613 23.655 7.89196 23.5581 8.20166 23.5716L8.15908 24.1589C7.98293 24.1569 7.85324 24.2228 7.76808 24.3604C7.71194 24.4515 7.67903 24.5678 7.66936 24.7093C7.65774 24.8663 7.67903 24.9942 7.7371 25.093C7.79324 25.1919 7.87841 25.2442 7.99261 25.2539C8.09714 25.2616 8.17844 25.2209 8.23651 25.1318C8.27522 25.0756 8.32555 24.9515 8.38555 24.7597L8.54428 24.2655C8.61396 24.0484 8.69526 23.8875 8.79204 23.7809C8.94109 23.6162 9.14627 23.5445 9.40758 23.5639C9.6747 23.5833 9.88763 23.7015 10.0483 23.9185C10.2089 24.1356 10.2767 24.4302 10.2496 24.8023C10.2225 25.1822 10.1122 25.4768 9.92247 25.6803C9.73277 25.8857 9.48694 25.9768 9.18305 25.9535L9.22563 25.3702C9.36113 25.3624 9.46178 25.3333 9.5334 25.283C9.66115 25.1919 9.73277 25.0271 9.75019 24.7868V24.7907Z" fill="white"/>
<path d="M10.2199 21.3021L9.93728 22.3429L10.4638 22.6975L10.2954 23.3158L7.74805 21.5366L7.93 20.8699L11.0251 20.6393L10.8509 21.2789L10.2218 21.3021H10.2199ZM9.68952 21.3351L8.4836 21.3855L9.49595 22.0522L9.69145 21.3351H9.68952Z" fill="white"/>
<path d="M9.35626 17.3407L9.82663 17.5577L9.45885 18.3524L11.6442 19.364L11.3868 19.9222L9.20141 18.9105L8.83169 19.709L8.36133 19.4919L9.35626 17.3387V17.3407Z" fill="white"/>
<path d="M9.7832 16.672L10.1065 16.1584L12.5822 17.7205L12.2589 18.236L9.7832 16.6739V16.672Z" fill="white"/>
<path d="M13.2978 16.0577C13.3907 15.9473 13.4527 15.8465 13.4875 15.7573C13.5514 15.5868 13.5185 15.4492 13.3927 15.3426C13.3191 15.2806 13.2339 15.2651 13.1391 15.2961C13.0462 15.3271 12.9242 15.4007 12.7771 15.5131L12.5255 15.705C12.2777 15.8949 12.0841 16.0074 11.9486 16.0442C11.7183 16.1081 11.4938 16.0481 11.2731 15.8639C11.0718 15.6953 10.9673 15.4821 10.9557 15.2244C10.946 14.9666 11.0582 14.6953 11.2963 14.4123C11.4938 14.1759 11.726 14.0266 11.9912 13.9646C12.2564 13.9026 12.5119 13.9685 12.7558 14.1604L12.3784 14.6119C12.2371 14.5073 12.0919 14.486 11.9428 14.548C11.8441 14.5887 11.7493 14.6643 11.6583 14.7728C11.5576 14.893 11.5015 15.0112 11.4899 15.1236C11.4783 15.236 11.5151 15.329 11.6022 15.4027C11.6815 15.4705 11.7725 15.4841 11.8712 15.4473C11.9351 15.424 12.0493 15.3523 12.208 15.2321L12.6242 14.924C12.8061 14.7883 12.9687 14.7069 13.1081 14.6759C13.3249 14.6313 13.534 14.6914 13.7333 14.86C13.9385 15.0325 14.043 15.2534 14.0469 15.5228C14.0508 15.7922 13.9327 16.0713 13.6927 16.3581C13.4488 16.6508 13.1894 16.8252 12.9145 16.8795C12.6416 16.9357 12.388 16.8659 12.1538 16.6702L12.5293 16.2225C12.6436 16.2942 12.7442 16.331 12.8294 16.331C12.9862 16.331 13.141 16.2399 13.2959 16.0558L13.2978 16.0577Z" fill="white"/>
<path d="M14.8303 11.8732L13.7057 12.8151L14.1373 13.3326L15.1226 12.5069L15.4478 12.8965L14.4625 13.7221L15.2504 14.664L14.7839 15.0536L12.9082 12.8093L14.4993 11.4759L14.8284 11.8713L14.8303 11.8732Z" fill="white"/>
<path d="M17.7717 12.1853L16.8387 12.726L16.9645 13.3481L16.4109 13.6679L15.8477 10.6096L16.4458 10.2627L18.8092 12.2783L18.2363 12.6116L17.7717 12.1853ZM17.371 11.8345L16.4787 11.0205L16.7284 12.2066L17.371 11.8345Z" fill="white"/>
<path d="M21.1045 11.2609C20.9612 11.5206 20.7289 11.7047 20.4057 11.8113C20.0069 11.945 19.6508 11.9218 19.3353 11.7435C19.0217 11.5632 18.7875 11.2473 18.6384 10.7996C18.4758 10.3151 18.4797 9.89841 18.652 9.54762C18.801 9.24334 19.0507 9.03209 19.3991 8.9158C19.8656 8.75882 20.2586 8.79758 20.576 9.03209C20.7522 9.16388 20.8741 9.31505 20.9419 9.4856L20.3612 9.67941C20.2799 9.55924 20.1966 9.47397 20.1153 9.42746C19.9702 9.34218 19.794 9.33443 19.5869 9.4042C19.3759 9.47591 19.2385 9.61545 19.1746 9.8267C19.1107 10.0379 19.1301 10.2996 19.2346 10.6097C19.3391 10.9198 19.4824 11.133 19.6624 11.2454C19.8424 11.3578 20.0321 11.3791 20.2315 11.3132C20.4347 11.2454 20.5683 11.1271 20.6302 10.9566C20.6651 10.8655 20.6786 10.7415 20.6689 10.5845L21.2438 10.3926C21.2941 10.7124 21.2496 11.0012 21.1064 11.2609H21.1045Z" fill="white"/>
<path d="M23.7933 8.05539L23.8649 8.56898L22.9977 8.68914L23.3287 11.0768L22.719 11.1621L22.388 8.77441L21.5169 8.89458L21.4453 8.38099L23.7933 8.05539Z" fill="white"/>
<path d="M24.584 8.05336L25.1918 8.04755L25.2228 10.976L24.615 10.9818L24.584 8.05336Z" fill="white"/>
<path d="M27.1595 11.2066C26.7453 11.1484 26.4452 10.9914 26.2575 10.7356C26.002 10.4178 25.911 9.99914 25.9826 9.4778C26.0562 8.94676 26.2594 8.5669 26.5885 8.34208C26.8382 8.14634 27.1711 8.07851 27.5854 8.13665C27.9996 8.19479 28.2996 8.35178 28.4874 8.6076C28.7429 8.91575 28.8339 9.33438 28.7584 9.86541C28.6867 10.3868 28.4854 10.7647 28.1544 11.0011C27.9047 11.1969 27.5718 11.2647 27.1576 11.2066H27.1595ZM27.8389 10.5069C28.0035 10.3499 28.1099 10.1077 28.1544 9.78014C28.199 9.45454 28.1641 9.1929 28.048 8.99522C27.9318 8.79753 27.7538 8.68319 27.5137 8.6483C27.2737 8.61535 27.0705 8.67737 26.9021 8.83436C26.7337 8.99134 26.6272 9.2336 26.5827 9.56113C26.5382 9.88867 26.573 10.1503 26.6911 10.3461C26.8092 10.5437 26.9892 10.6581 27.2292 10.691C27.4692 10.724 27.6725 10.662 27.8389 10.505V10.5069Z" fill="white"/>
<path d="M31.2904 12.2745L30.7155 12.0671L30.2954 9.7046L29.5909 11.6621L29.0547 11.4683L30.0457 8.71231L30.6497 8.92938L31.0542 11.2492L31.7472 9.32474L32.2834 9.51855L31.2923 12.2745H31.2904Z" fill="white"/>
<path d="M34.6373 12.9801L34.1282 12.606L33.4507 13.5324L32.9688 13.1797L34.6973 10.8172L35.8548 11.666C36.0174 11.7901 36.1297 11.9044 36.1916 12.0071C36.2536 12.1099 36.2884 12.2203 36.2981 12.3386C36.3058 12.4355 36.2981 12.5324 36.2749 12.6273C36.2516 12.7223 36.2052 12.8153 36.1374 12.9084C36.0561 13.0208 35.9458 13.1099 35.8103 13.1777C35.6748 13.2456 35.5258 13.2533 35.3612 13.2029C35.4387 13.327 35.4696 13.4452 35.4561 13.5595C35.4425 13.6739 35.3748 13.8134 35.2548 13.9782L35.1386 14.1371C35.0593 14.2456 35.0109 14.3212 34.9915 14.3658C34.9605 14.4356 34.9567 14.5034 34.9838 14.5654L34.9412 14.6255L34.3992 14.2282C34.4224 14.1642 34.4418 14.1138 34.4592 14.0789C34.496 14.0034 34.5386 13.9297 34.587 13.8599L34.7438 13.6371C34.8521 13.484 34.8986 13.3638 34.8812 13.2746C34.8657 13.1855 34.7844 13.0886 34.6392 12.982L34.6373 12.9801ZM35.2509 12.7707C35.3825 12.7979 35.4967 12.7456 35.5935 12.6118C35.698 12.4684 35.7213 12.3366 35.6613 12.2184C35.6284 12.1506 35.5587 12.0789 35.4522 12.0013L34.8793 11.5808L34.4147 12.2165L34.9741 12.6254C35.0844 12.7068 35.1773 12.7552 35.2528 12.7707H35.2509Z" fill="white"/>
<path d="M36.9374 15.8598L36.2096 15.0633L35.6289 15.3191L35.1973 14.8462L38.0601 13.6407L38.5266 14.1504L37.0671 16.8928L36.62 16.4025L36.9374 15.8579V15.8598ZM37.1949 15.3927L37.7988 14.3462L36.6935 14.8443L37.1949 15.3927Z" fill="white"/>
<path d="M40.7401 17.2359L40.3045 17.5169L39.8284 16.7804L37.8075 18.0906L37.4727 17.5731L39.4935 16.263L39.0154 15.5246L39.4509 15.2435L40.7381 17.2359H40.7401Z" fill="white"/>
<path d="M41.0817 17.9607L41.343 18.5092L38.7027 19.7709L38.4414 19.2224L41.0817 17.9607Z" fill="white"/>
<path d="M39.7045 22.6314L39.5226 22.0461L41.1505 20.2844L39.1664 20.9046L38.9961 20.36L41.7893 19.4879L41.9809 20.1003L40.3782 21.8233L42.3274 21.2147L42.4977 21.7593L39.7045 22.6314Z" fill="white"/>
<path d="M40.0757 25.029C39.9615 24.8778 39.8938 24.684 39.8706 24.4495C39.8338 24.0638 39.9364 23.7344 40.1803 23.4611C40.4242 23.1781 40.7803 23.0153 41.2468 22.9708C41.7191 22.9262 42.1082 23.0192 42.4179 23.2518C42.7276 23.4843 42.9018 23.8138 42.9425 24.2421C42.9773 24.6123 42.9115 24.9185 42.747 25.1627C42.5805 25.405 42.3598 25.5561 42.0811 25.6162L42.025 25.0174C42.2185 24.9515 42.3482 24.8255 42.4101 24.6394C42.4431 24.5348 42.4547 24.4224 42.4431 24.2983C42.4198 24.0638 42.3134 23.8797 42.1217 23.746C41.9301 23.6123 41.6572 23.5619 41.301 23.5968C40.9429 23.6316 40.6971 23.7363 40.5635 23.9146C40.43 24.0929 40.3738 24.2848 40.3932 24.4941C40.4125 24.6995 40.488 24.8604 40.6177 24.9805C40.7474 25.1007 40.91 25.1647 41.1036 25.1782L41.0397 24.5038L41.5255 24.4573L41.6417 25.6724L40.0796 25.8217L40.0409 25.4185L40.399 25.3216C40.2499 25.217 40.1415 25.122 40.0757 25.0329V25.029Z" fill="white"/>
<path d="M39.3474 29.8971C39.4035 29.7239 39.6409 29.7136 39.7163 29.8723L39.7243 29.8971L40.0863 31.0154L40.0864 31.0157C40.1403 31.1804 40.2926 31.292 40.466 31.292H41.6409C41.8332 31.292 41.9136 31.5387 41.7582 31.6518C41.7582 31.6518 41.7582 31.6518 41.7582 31.6518L40.808 32.3435C40.808 32.3436 40.8079 32.3436 40.8079 32.3437C40.6683 32.4447 40.6091 32.6256 40.6632 32.7908C40.6632 32.7909 40.6632 32.7909 40.6632 32.791L41.0251 33.9089C41.0845 34.0927 40.8736 34.2438 40.7202 34.1325L39.7699 33.4407L39.7696 33.4405C39.6301 33.3396 39.4416 33.3396 39.3021 33.4405L39.3018 33.4407L38.3514 34.1326L38.3514 34.1326C38.1958 34.2459 37.9858 34.0943 38.0465 33.9093L38.0467 33.9089L38.4085 32.791C38.4085 32.7909 38.4086 32.7909 38.4086 32.7908C38.4629 32.6248 38.4028 32.4467 38.2647 32.3443L38.264 32.3437L37.3136 31.6518C37.3136 31.6518 37.3135 31.6518 37.3135 31.6518C37.1575 31.5382 37.2375 31.292 37.4308 31.292H38.6058C38.7792 31.292 38.9314 31.1804 38.9854 31.0157L38.9855 31.0154L39.3474 29.8971L39.3474 29.8971Z" fill="white" stroke="#3171FB" stroke-width="0.2"/>
<path d="M33.8432 37.0394C33.7678 36.8807 33.5304 36.891 33.4744 37.0642L33.4744 37.0642L33.1124 38.1824L33.1123 38.1828C33.0583 38.3474 32.9061 38.459 32.7327 38.459H31.5578C31.3644 38.459 31.2844 38.7052 31.4405 38.8189C31.4405 38.8189 31.4405 38.8189 31.4405 38.8189L32.3909 39.5108L32.3916 39.5113C32.5297 39.6137 32.5899 39.7918 32.5355 39.9579L32.5356 39.9577L32.4405 39.9269L32.5355 39.9581L33.8432 37.0394ZM33.8432 37.0394L33.8513 37.0642L34.2132 38.1824L34.2133 38.1828C34.2673 38.3474 34.4195 38.459 34.5929 38.459H35.7679C35.9601 38.459 36.0405 38.7057 35.8851 38.8189L34.935 39.5106L33.8432 37.0394ZM34.7901 39.9579C34.736 39.7926 34.7952 39.6118 34.9348 39.5107L34.9347 39.5108L34.7901 39.9579ZM34.7901 39.9579C34.7901 39.9579 34.7901 39.958 34.7902 39.9581L35.152 41.076L34.7901 39.9579ZM34.8472 41.2995L34.7884 41.3805L34.8473 41.2996L34.8472 41.2995Z" fill="white" stroke="#3171FB" stroke-width="0.2"/>
<path d="M24.8924 39.6379C24.9484 39.4647 25.1858 39.4544 25.2612 39.6131L25.2692 39.6379L25.6312 40.7562L25.6313 40.7565C25.6853 40.9212 25.8375 41.0327 26.0109 41.0327H27.1858C27.3781 41.0327 27.4585 41.2795 27.3031 41.3926L26.353 42.0843C26.3529 42.0844 26.3529 42.0844 26.3528 42.0844C26.2132 42.1855 26.154 42.3664 26.2081 42.5316C26.2081 42.5317 26.2081 42.5317 26.2081 42.5318L26.57 43.6497C26.6295 43.8335 26.4185 43.9846 26.2651 43.8733L25.3148 43.1815L25.3146 43.1813C25.1751 43.0804 24.9865 43.0804 24.847 43.1813L24.8468 43.1815L23.8963 43.8734L23.8963 43.8734C23.7407 43.9867 23.5307 43.8351 23.5915 43.6501L23.5916 43.6497L23.9534 42.5318C23.9535 42.5317 23.9535 42.5317 23.9535 42.5316C24.0078 42.3656 23.9477 42.1875 23.8096 42.085L23.8089 42.0845L22.8585 41.3926C22.7024 41.279 22.7824 41.0327 22.9758 41.0327H24.1507C24.3241 41.0327 24.4763 40.9212 24.5303 40.7565L24.5304 40.7562L24.8924 39.6379L24.8924 39.6379Z" fill="white" stroke="#3171FB" stroke-width="0.2"/>
<path d="M16.6753 37.0394C16.5999 36.8807 16.3625 36.891 16.3064 37.0642L16.3064 37.0642L15.9445 38.1824L15.9443 38.1828C15.8904 38.3474 15.7382 38.459 15.5648 38.459H14.3898C14.1964 38.459 14.1165 38.7053 14.2725 38.8189L15.2229 39.5108L15.2237 39.5113C15.3618 39.6137 15.4219 39.7918 15.3676 39.9579L15.3676 39.9577L15.2725 39.9269L15.3675 39.9581L16.6753 37.0394ZM16.6753 37.0394L16.6833 37.0642L17.0453 38.1824L17.0454 38.1828C17.0993 38.3474 17.2515 38.459 17.4249 38.459H18.5999C18.7922 38.459 18.8726 38.7057 18.7172 38.8189L17.767 39.5106M16.6753 37.0394L17.767 39.5106M17.767 39.5106C17.767 39.5106 17.7669 39.5107 17.7668 39.5107L17.767 39.5106ZM17.6792 41.2995L17.6204 41.3805L17.6793 41.2996L17.6792 41.2995Z" fill="white" stroke="#3171FB" stroke-width="0.2"/>
<path d="M10.8022 29.8723C10.7268 29.7136 10.4894 29.7239 10.4334 29.8971L10.4334 29.8971L10.0714 31.0154L10.0713 31.0157C10.0173 31.1804 9.86512 31.292 9.69172 31.292H8.51677C8.3234 31.292 8.24343 31.5382 8.39948 31.6518C8.39949 31.6518 8.39949 31.6518 8.39949 31.6518L9.3499 32.3437L9.35061 32.3443C9.48871 32.4467 9.54884 32.6248 9.49453 32.7908L9.49458 32.7907L9.39944 32.7599L9.49446 32.791L10.8022 29.8723ZM10.8022 29.8723L10.8102 29.8971L11.1722 31.0154L11.1723 31.0157C11.2263 31.1804 11.3785 31.292 11.5519 31.292H12.7268C12.9191 31.292 12.9995 31.5387 12.8441 31.6518M10.8022 29.8723L12.8441 31.6518M12.8441 31.6518L11.894 32.3435C11.8939 32.3436 11.8939 32.3436 11.8938 32.3437C11.7542 32.4447 11.695 32.6256 11.7491 32.7908C11.7491 32.7909 11.7491 32.7909 11.7492 32.791L12.111 33.9089L12.8441 31.6518ZM11.8061 34.1325L11.7474 34.2134L11.8063 34.1326L11.8061 34.1325Z" fill="white" stroke="#3171FB" stroke-width="0.2"/>
</g>
<path d="M13.9769 28.2656C14.225 28.8605 14.3872 29.1237 14.7116 29.426C15.2745 29.9331 16.0092 30.1867 16.9157 30.1867C17.3451 30.1867 17.8126 30.1087 18.1943 29.9819C18.8717 29.7576 19.4824 29.2018 19.8163 28.4996C20.1694 27.7585 20.3602 26.8028 20.3602 25.7692C20.3602 24.6965 20.1503 23.7701 19.7591 23.1362C19.1866 22.2 18.2229 21.693 17.0111 21.693C15.1219 21.693 13.8242 22.8729 13.8242 24.599C13.8242 26.2372 14.9406 27.3002 16.6581 27.3002C17.4977 27.3002 18.0416 27.0954 18.5568 26.5981C18.4996 27.2612 18.4137 27.6122 18.2324 27.9243C17.9748 28.3631 17.5454 28.6069 17.0111 28.6069C16.6294 28.6069 16.3241 28.4801 16.1142 28.2461C16.0188 28.1388 15.9615 28.0413 15.8852 27.8268L13.9769 28.2656ZM16.9825 25.7594C16.2001 25.7594 15.6848 25.2621 15.6848 24.5112C15.6848 23.7701 16.2287 23.263 17.0207 23.263C17.8126 23.263 18.366 23.7701 18.366 24.5014C18.366 25.2523 17.8031 25.7594 16.9825 25.7594Z" fill="white"/>
<path d="M21.2613 28.2656C21.5094 28.8605 21.6716 29.1237 21.996 29.426C22.5589 29.9331 23.2937 30.1867 24.2001 30.1867C24.6295 30.1867 25.097 30.1087 25.4787 29.9819C26.1561 29.7576 26.7668 29.2018 27.1007 28.4996C27.4538 27.7585 27.6446 26.8028 27.6446 25.7692C27.6446 24.6965 27.4347 23.7701 27.0435 23.1362C26.471 22.2 25.5073 21.693 24.2955 21.693C22.4063 21.693 21.1086 22.8729 21.1086 24.599C21.1086 26.2372 22.225 27.3002 23.9425 27.3002C24.7821 27.3002 25.326 27.0954 25.8413 26.5981C25.784 27.2612 25.6981 27.6122 25.5168 27.9243C25.2592 28.3631 24.8298 28.6069 24.2955 28.6069C23.9139 28.6069 23.6085 28.4801 23.3986 28.2461C23.3032 28.1388 23.2459 28.0413 23.1696 27.8268L21.2613 28.2656ZM24.2669 25.7594C23.4845 25.7594 22.9692 25.2621 22.9692 24.5112C22.9692 23.7701 23.5131 23.263 24.3051 23.263C25.097 23.263 25.6504 23.7701 25.6504 24.5014C25.6504 25.2523 25.0875 25.7594 24.2669 25.7594Z" fill="white"/>
<path d="M30.3681 26.286C30.9597 26.286 31.4845 26.091 31.8376 25.7302C32.2192 25.3498 32.4196 24.755 32.4196 23.9944C32.4196 23.2532 32.2288 22.6681 31.8471 22.2781C31.4941 21.9172 30.9788 21.7222 30.3681 21.7222C29.767 21.7222 29.2518 21.9172 28.8892 22.2781C28.5075 22.6681 28.3072 23.263 28.3072 24.0041C28.3072 24.7452 28.5075 25.3498 28.8797 25.7204C29.2518 26.091 29.7575 26.286 30.3681 26.286ZM30.3681 22.7754C30.8452 22.7754 31.0933 23.185 31.0933 23.9944C31.0933 24.8233 30.8452 25.2426 30.3681 25.2426C29.8815 25.2426 29.6334 24.8135 29.6334 23.9944C29.6334 23.1947 29.8911 22.7754 30.3681 22.7754ZM35.0912 30.1574C35.6924 30.1574 36.2171 29.9624 36.5702 29.6016C36.9518 29.2213 37.1522 28.6167 37.1522 27.8658C37.1522 26.4323 36.3984 25.5936 35.1008 25.5936C34.4901 25.5936 33.9749 25.7887 33.6123 26.1495C33.2306 26.5395 33.0303 27.1344 33.0303 27.8658C33.0303 28.6167 33.2306 29.2213 33.6027 29.5918C33.9749 29.9624 34.4901 30.1574 35.0912 30.1574ZM35.1008 26.6468C35.5779 26.6468 35.8259 27.0564 35.8259 27.8463C35.8259 28.6947 35.5874 29.114 35.0912 29.114C34.6046 29.114 34.3565 28.6849 34.3565 27.8463C34.3565 27.0564 34.6142 26.6468 35.1008 26.6468ZM29.3663 29.8746L29.8624 30.2647L36.0836 22.0148L35.5779 21.6247L29.3663 29.8746Z" fill="white"/>
<defs>
<clipPath id="clip0_8051_1162">
<rect width="35.7943" height="35.7943" fill="white" transform="translate(7.16016 8.04755)"/>
</clipPath>
</defs>
</svg>
