<svg xmlns="http://www.w3.org/2000/svg" width="21.852" height="21.852" viewBox="0 0 21.852 21.852">
  <path id="Icon_awesome-ticket-alt" data-name="Icon awesome-ticket-alt" d="M4.121,7.59h10.3v6.181H4.121ZM17,10.681a1.545,1.545,0,0,0,1.545,1.545v3.09A1.545,1.545,0,0,1,17,16.862H1.545A1.545,1.545,0,0,1,0,15.316v-3.09a1.545,1.545,0,0,0,1.545-1.545A1.545,1.545,0,0,0,0,9.136V6.045A1.545,1.545,0,0,1,1.545,4.5H17a1.545,1.545,0,0,1,1.545,1.545v3.09A1.545,1.545,0,0,0,17,10.681ZM15.452,7.333a.773.773,0,0,0-.773-.773H3.863a.773.773,0,0,0-.773.773v6.7a.773.773,0,0,0,.773.773H14.679a.773.773,0,0,0,.773-.773Z" transform="translate(-3.182 9.929) rotate(-45)" fill="#fff"/>
</svg>
