<svg id="Layer_8" data-name="Layer 8" xmlns="http://www.w3.org/2000/svg" viewBox="0 0 100.81 24.76"><defs><style>.cls-1{fill:#fdb82b;}.cls-2{fill:#fff;}</style></defs><title>toknew</title><path class="cls-1" d="M134.47,50.86h2.71c2.7,0,4.1,1.3,4.1,3.56s-1.3,3.7-4.1,3.7h-2.71V50.86Zm2.94,5.46c1,0,1.55-.73,1.55-1.87a1.55,1.55,0,0,0-1.55-1.79h-0.62v3.65h0.62Z" transform="translate(-68.68 -40.76)"/><path class="cls-1" d="M148.24,50.73a4.32,4.32,0,0,1,2.92,1.08l-1.22,1.46a2.5,2.5,0,0,0-1.61-.61,1.69,1.69,0,0,0-1.67,1.86,1.61,1.61,0,0,0,1.67,1.82,1.55,1.55,0,0,0,.84-0.2V55.29h-1.24v-1.4h3.29V57.3a4.8,4.8,0,0,1-3,1A3.77,3.77,0,1,1,148.24,50.73Z" transform="translate(-68.68 -40.76)"/><path class="cls-1" d="M156.43,52.89h-2.15v-2h6.61v2h-2.15v5.23h-2.31V52.89Z" transform="translate(-68.68 -40.76)"/><path class="cls-1" d="M164.11,50.86h2.32v5.29h3.06v2h-5.38V50.86Z" transform="translate(-68.68 -40.76)"/><polygon class="cls-2" points="50.36 24.67 60 0.09 56.14 0.09 46.51 24.67 50.36 24.67 50.36 24.67"/><polygon class="cls-2" points="10.24 5.46 10.24 24.67 4.87 24.67 4.87 5.46 0 5.46 0 0.09 15.1 0.09 15.1 5.46 10.24 5.46"/><polygon class="cls-2" points="44.38 0.11 39.56 12.4 44.38 24.7 38.61 24.7 33.79 12.4 38.61 0.11 44.38 0.11"/><path class="cls-2" d="M92.53,40.76A7.58,7.58,0,0,0,85,48.34v9.6a7.58,7.58,0,1,0,15.16,0v-9.6A7.58,7.58,0,0,0,92.53,40.76Zm2.2,17.12a2.11,2.11,0,0,1-.1.66,2.2,2.2,0,0,1-4.2,0,2,2,0,0,1-.1-0.65V48.77c0-.06,0-0.11,0-0.17a2.52,2.52,0,0,1,.42-1.49,2.18,2.18,0,0,1,1.74-.93h0.05a2.19,2.19,0,0,1,2.19,2.19v9.51Z" transform="translate(-68.68 -40.76)"/></svg>